# xmcd
#
# Track frame offsets: 
#        150
#        10593
#        28318
#        41000
#        59938
#        74523
#        87378
#        105597
#        123828
#        142684
#
# Disc length: 2160 seconds
#
# Revision: 0
# Processed by: cddbd v1.5.2PL0 Copyright (c) Steve Scherf et al.
# Submitted via: ExactAudioCopyFreeDBPlugin 1.0
#
DISCID=88086e0a
DTITLE=Twice As Good - If That's Alright With You
DYEAR=2009
DGENRE=Blues
TTITLE0=Walk with you, talk to you
TTITLE1=Clarksdale
TTITLE2=I love my babe
TTITLE3=The Sax Boogie
TTITLE4=If that's all right with you
TTITLE5=Make it go
TTITLE6=Recession
TTITLE7=The way you move
TTITLE8=Somebody new
TTITLE9=Don't let the green grass fool you
EXTD=
EXTT0=
EXTT1=
EXTT2=
EXTT3=
EXTT4=
EXTT5=
EXTT6=
EXTT7=
EXTT8=
EXTT9=
PLAYORDER=
